
<svg width="684px" height="414px" viewBox="0 0 684 414" version="1.1" xmlns="http://www.w3.org/2000/svg" xmlns:xlink="http://www.w3.org/1999/xlink">
    <g id="Page-1" stroke="none" stroke-width="1" fill="none" fill-rule="evenodd">
        <g id="laptop" stroke="#FFFFFF" stroke-width="2">
            <path d="M643,387 L643,12.0034591 C643,5.92000767 638.079801,1 632.002847,1 L51.997153,1 C45.923695,1 41,5.92629 41,12.0034591 L41,387 L643,387 Z" id="Rectangle-6"></path>
            <path d="M683,413 L683,397.99769 C683,391.927609 678.073636,387 672.001299,387 L11.9987005,387 C5.93028325,387 1,391.927209 1,397.99769 L1,413 L683,413 Z" id="Rectangle-7" transform="translate(342.000000, 400.000000) rotate(-180.000000) translate(-342.000000, -400.000000) "></path>
            <circle id="Oval-11" cx="70" cy="30" r="10"></circle>
            <circle id="Oval-9" cx="110" cy="30" r="10"></circle>
            <circle id="Oval-10" cx="150" cy="30" r="10"></circle>
        </g>
    </g>
</svg>